<?xml version="1.0" standalone="no"?>
<svg xmlns:xlink="http://www.w3.org/1999/xlink" id="wave" style="transform:rotate(180deg); transition: 0.3s" viewBox="0 0 1440 210" version="1.1" xmlns="http://www.w3.org/2000/svg"><defs><linearGradient id="sw-gradient-0" x1="0" x2="0" y1="1" y2="0"><stop stop-color="rgba(0, 102, 102, 1)" offset="0%" data-darkreader-inline-stopcolor="" style="--darkreader-inline-stopcolor: #005252;"/><stop stop-color="rgba(0, 102, 102, 1)" offset="100%" data-darkreader-inline-stopcolor="" style="--darkreader-inline-stopcolor: #005252;"/></linearGradient></defs><path style="transform:translate(0, 0px); opacity:1" fill="url(#sw-gradient-0)" d="M0,84L60,80.5C120,77,240,70,360,59.5C480,49,600,35,720,38.5C840,42,960,63,1080,70C1200,77,1320,70,1440,59.5C1560,49,1680,35,1800,24.5C1920,14,2040,7,2160,3.5C2280,0,2400,0,2520,0C2640,0,2760,0,2880,3.5C3000,7,3120,14,3240,17.5C3360,21,3480,21,3600,38.5C3720,56,3840,91,3960,112C4080,133,4200,140,4320,133C4440,126,4560,105,4680,84C4800,63,4920,42,5040,49C5160,56,5280,91,5400,105C5520,119,5640,112,5760,108.5C5880,105,6000,105,6120,101.5C6240,98,6360,91,6480,77C6600,63,6720,42,6840,59.5C6960,77,7080,133,7200,143.5C7320,154,7440,119,7560,94.5C7680,70,7800,56,7920,66.5C8040,77,8160,112,8280,122.5C8400,133,8520,119,8580,112L8640,105L8640,210L8580,210C8520,210,8400,210,8280,210C8160,210,8040,210,7920,210C7800,210,7680,210,7560,210C7440,210,7320,210,7200,210C7080,210,6960,210,6840,210C6720,210,6600,210,6480,210C6360,210,6240,210,6120,210C6000,210,5880,210,5760,210C5640,210,5520,210,5400,210C5280,210,5160,210,5040,210C4920,210,4800,210,4680,210C4560,210,4440,210,4320,210C4200,210,4080,210,3960,210C3840,210,3720,210,3600,210C3480,210,3360,210,3240,210C3120,210,3000,210,2880,210C2760,210,2640,210,2520,210C2400,210,2280,210,2160,210C2040,210,1920,210,1800,210C1680,210,1560,210,1440,210C1320,210,1200,210,1080,210C960,210,840,210,720,210C600,210,480,210,360,210C240,210,120,210,60,210L0,210Z"/></svg>